{"title":"The Voice AU - S05E15","uid":15111262,"size":916478102,"categoryP":"video","categoryS":"tv_shows","magnet":"?xt=urn:btih:8cfc02eb9961915c36a616c009547fcfdfa12fbc&amp;dn=The+Voice+AU+-+S05E15&amp;tr=udp%3A%2F%2Ftracker.leechers-paradise.org%3A6969&amp;tr=udp%3A%2F%2Fzer0day.ch%3A1337&amp;tr=udp%3A%2F%2Fopen.demonii.com%3A1337&amp;tr=udp%3A%2F%2Ftracker.coppersurfer.tk%3A6969&amp;tr=udp%3A%2F%2Fexodus.desync.com%3A6969","seeders":3,"leechers":1,"uploader":"Bullrout","files":1,"time":1467006934,"description":"The Voice AU - S05E15\r\n\r\nIrish superstar Ronan Keating joins fellow coaches Jessie J, Delta Goodrem, the Madden Brothers and host Sonia Kruger in the fifth season of The Voice Australia, where the voices are out of this world.\r\n\r\nComplete name : The Voice AU - S05E15.mp4\r\nFormat : MPEG-4\r\nFormat profile : Base Media / Version 2\r\nCodec ID : mp42 (mp42/isom/avc1)\r\nFile size : 874 MiB\r\nDuration : 1h 49mn\r\nOverall bit rate mode : Variable\r\nOverall bit rate : 1 117 Kbps\r\n\r\nVideo\r\nID : 2\r\nFormat : AVC\r\nFormat/Info : Advanced Video Codec\r\nFormat profile :   \r\nFormat settings, CABAC : Yes\r\nFormat settings, ReFrames : 3 frames\r\nCodec ID : avc1\r\nCodec ID/Info : Advanced Video Coding\r\nDuration : 1h 49mn\r\nBit rate mode : Variable\r\nBit rate : 986 Kbps\r\nMaximum bit rate : 1 000 Kbps\r\nWidth : 720 pixels\r\nHeight : 404 pixels\r\nDisplay aspect ratio : 16:9\r\nOriginal display aspect ratio : 16:9\r\nFrame rate mode : Constant\r\nFrame rate : 25.000 fps\r\nStandard : PAL\r\nColor space : YUV\r\nChroma subsampling : 4:2:0\r\nBit depth : 8 bits\r\nScan type : Progressive\r\nBits/(Pixel*Frame) : 0.136\r\nStream size : 771 MiB (88%)\r\nWriting library : x264 core 112\r\nColor range : Limited\r\nColor primaries : BT.601 PAL\r\nTransfer characteristics : BT.470 System B, BT.470 System G\r\nMatrix coefficients : BT.601\r\n\r\nAudio\r\nID : 1\r\nFormat : AAC\r\nFormat/Info : Advanced Audio Codec\r\nFormat profile : LC\r\nCodec ID : 40\r\nDuration : 1h 49mn\r\nBit rate mode : Variable\r\nBit rate : 128 Kbps\r\nMaximum bit rate : 576 Kbps\r\nChannel(s) : 2 channels\r\nChannel positions : Front: L R\r\nSampling rate : 48.0 KHz\r\nFrame rate : 46.875 fps (1024 spf)\r\nCompression mode : Lossy\r\nStream size : 100 MiB (11%)","torrent":{"xt":"urn:btih:8cfc02eb9961915c36a616c009547fcfdfa12fbc","amp;dn":"The+Voice+AU+-+S05E15","amp;tr":["udp%3A%2F%2Ftracker.leechers-paradise.org%3A6969","udp%3A%2F%2Fzer0day.ch%3A1337","udp%3A%2F%2Fopen.demonii.com%3A1337","udp%3A%2F%2Ftracker.coppersurfer.tk%3A6969","udp%3A%2F%2Fexodus.desync.com%3A6969"],"infoHash":"8cfc02eb9961915c36a616c009547fcfdfa12fbc","infoHashBuffer":{"type":"Buffer","data":[140,252,2,235,153,97,145,92,54,166,22,192,9,84,127,207,223,161,47,188]},"announce":[],"urlList":[]}}